# xmcd
#
# Track frame offsets:
#	150
#	14407
#	31870
#	45292
#	56144
#	70347
#	87056
#	103840
#	120045
#	133997
#	151482
#	161949
#	176456
#	188133
#	202743
#	226555
#	241190
#	250873
#	271446
#	284259
#
# Disc length: 4003 seconds
#
# Revision: 0
# Processed by: cddbd v1.5.2PL0 Copyright (c) Steve Scherf et al.
# Submitted via: dBpowerAMP V4.0
#
DISCID=050fa114
DTITLE=Alan Ladd - Amazing grace en ander Country Gospel-Treffers
DYEAR=2008
DGENRE=Country Gospel
TTITLE0=Little Delta church
TTITLE1=One day at a time
TTITLE2=Beyond se sunset
TTITLE3=Where we never grow old
TTITLE4=God will take care of you
TTITLE5=When the Saints go marching in
TTITLE6=Shallow water
TTITLE7=Amazing grace
TTITLE8=In God's eyes
TTITLE9=Suppertime
TTITLE10=I saw the light
TTITLE11=He took my place at Calvary
TTITLE12=Where do I go from here
TTITLE13=Rock of ages
TTITLE14=Farther along
TTITLE15=Three wooden crosses
TTITLE16=Oh how I love Jesus
TTITLE17=This little light of mine
TTITLE18=Turn your radio on
TTITLE19=Revelation
EXTD=
EXTT0=
EXTT1=
EXTT2=
EXTT3=
EXTT4=
EXTT5=
EXTT6=
EXTT7=
EXTT8=
EXTT9=
EXTT10=
EXTT11=
EXTT12=
EXTT13=
EXTT14=
EXTT15=
EXTT16=
EXTT17=
EXTT18=
EXTT19=
PLAYORDER=
